<?xml version="1.0" encoding="utf-8"?>
<!DOCTYPE svg PUBLIC "-//W3C//DTD SVG 1.1//EN"  "http://www.w3.org/Graphics/SVG/1.1/DTD/svg11.dtd">
<svg version="1.1" xmlns="http://www.w3.org/2000/svg" xmlns:xlink="http://www.w3.org/1999/xlink" font-family="Arial" font-size="13" width="283" height="382">
	<desc>UML diagram model</desc>
	<g id="_sY6GIjSUEeWht9Pd0LRltA">
		<defs>
			<linearGradient id="greyGradient" x1="0%" y1="0%" x2="0%" y2="100%" spreadMethod="pad">
				<stop offset="0%" stop-color="#FFFFFF" stop-opacity="1" />
				<stop offset="100%" stop-color="#E5E5E5" stop-opacity="1" />
				
			</linearGradient>
			<linearGradient id="packageGradient" x1="0%" y1="0%" x2="0%" y2="100%" spreadMethod="pad">
				<stop offset="0%" stop-color="#FFFFFF" stop-opacity="1" />
				<stop offset="100%" stop-color="#EFE9DE" stop-opacity="1" />
				
			</linearGradient>
			
		</defs>
		<g id="_wifT4BbCEDOwktU4RnNqCQ">
			<rect x="90" y="2" width="99" height="80" rx="5" ry="0" fill="url(#greyGradient)" stroke="#CCCCCC" stroke-width="1" />
			<text x="140" y="20" text-anchor="middle" font-style="normal" font-weight="bold" fill="#033656">SpaceObject</text>
			<line x1="90" y1="29" x2="189" y2="29" stroke-width="1.0" stroke="#CCCCCC" />
			<line x1="90" y1="36" x2="189" y2="36" stroke-width="1.0" stroke="#CCCCCC" />
			
		</g>
		<g id="_yDX30BbCEDOwktU4RnNqCQ">
			<rect x="80" y="122" width="115" height="80" rx="5" ry="0" fill="url(#greyGradient)" stroke="#CCCCCC" stroke-width="1" />
			<text x="138" y="140" text-anchor="middle" font-style="normal" font-weight="bold" fill="#033656">EnginePowered</text>
			<line x1="80" y1="149" x2="195" y2="149" stroke-width="1.0" stroke="#CCCCCC" />
			<line x1="80" y1="156" x2="195" y2="156" stroke-width="1.0" stroke="#CCCCCC" />
			
		</g>
		<g id="_zuA0sBbCEDOwktU4RnNqCQ">
			<rect x="150" y="252" width="83" height="80" rx="5" ry="0" fill="url(#greyGradient)" stroke="#CCCCCC" stroke-width="1" />
			<text x="192" y="270" text-anchor="middle" font-style="normal" font-weight="bold" fill="#033656">SpaceShip</text>
			<line x1="150" y1="279" x2="233" y2="279" stroke-width="1.0" stroke="#CCCCCC" />
			<line x1="150" y1="286" x2="233" y2="286" stroke-width="1.0" stroke="#CCCCCC" />
			
		</g>
		<g id="_0tjmIBbCEDOwktU4RnNqCQ">
			<rect x="50" y="252" width="62" height="80" rx="5" ry="0" fill="url(#greyGradient)" stroke="#CCCCCC" stroke-width="1" />
			<text x="81" y="270" text-anchor="middle" font-style="normal" font-weight="bold" fill="#033656">Missile</text>
			<line x1="50" y1="279" x2="112" y2="279" stroke-width="1.0" stroke="#CCCCCC" />
			<line x1="50" y1="286" x2="112" y2="286" stroke-width="1.0" stroke="#CCCCCC" />
			
		</g>
		<g id="_6AITABbCEDOwktU4RnNqCQ">
			<polyline fill="none" stroke-width="1" stroke="#000000" points="139,122 139,102" />
			
		</g>
		<g id="_6AITABbCEDOwktU4RnNqCQ">
			<polyline fill="none" stroke-width="1" stroke="#000000" points="139,102 139,102" />
			
		</g>
		<g id="_6AITABbCEDOwktU4RnNqCQ">
			<polyline fill="none" stroke-width="1" stroke="#000000" points="139,102 139,82" />
			<g transform="translate(139,82)">
				<g transform="rotate(0)">
					<polygon fill="#FFFFFF" stroke-width="1" stroke="#000000" points="-6,10 0,0 6,10 -6,10" />
					
				</g>
				
			</g>
			
		</g>
		<g id="_7IPxoBbCEDOwktU4RnNqCQ">
			<polyline fill="none" stroke-width="1" stroke="#000000" points="96,252 96,227" />
			
		</g>
		<g id="_7IPxoBbCEDOwktU4RnNqCQ">
			<polyline fill="none" stroke-width="1" stroke="#000000" points="96,227 96,227" />
			
		</g>
		<g id="_7IPxoBbCEDOwktU4RnNqCQ">
			<polyline fill="none" stroke-width="1" stroke="#000000" points="96,227 96,202" />
			<g transform="translate(96,202)">
				<g transform="rotate(0)">
					<polygon fill="#FFFFFF" stroke-width="1" stroke="#000000" points="-6,10 0,0 6,10 -6,10" />
					
				</g>
				
			</g>
			
		</g>
		<g id="_7cduIBbCEDOwktU4RnNqCQ">
			<polyline fill="none" stroke-width="1" stroke="#000000" points="172,252 172,227" />
			
		</g>
		<g id="_7cduIBbCEDOwktU4RnNqCQ">
			<polyline fill="none" stroke-width="1" stroke="#000000" points="172,227 172,227" />
			
		</g>
		<g id="_7cduIBbCEDOwktU4RnNqCQ">
			<polyline fill="none" stroke-width="1" stroke="#000000" points="172,227 172,202" />
			<g transform="translate(172,202)">
				<g transform="rotate(0)">
					<polygon fill="#FFFFFF" stroke-width="1" stroke="#000000" points="-6,10 0,0 6,10 -6,10" />
					
				</g>
				
			</g>
			
		</g>
		
	</g>
	
</svg>
